<svg width="189" height="60" fill="none" xmlns="http://www.w3.org/2000/svg">
  <g clip-path="url(#a)" fill="#fff">
    <path d="M8.6 54.62 0 10.66l31.1-6.08L32.92 14l-21.16 4.14 1.4 7.16 13.25-2.6 1.84 9.43-13.25 2.59 3.51 17.96-9.92 1.94ZM40.03 46.74l-.93-32.7 9.6-.27.93 32.7-9.6.27Zm3.79-35.7c-1.5.03-2.8-.47-3.92-1.53a5.29 5.29 0 0 1-1.74-3.82 5.1 5.1 0 0 1 1.49-3.82A5.31 5.31 0 0 1 43.51.16C45.09.1 46.4.6 47.49 1.6a5.12 5.12 0 0 1 1.67 3.76 5.31 5.31 0 0 1-1.49 3.95 5.31 5.31 0 0 1-3.85 1.71ZM55 56.2l4.23-32.44L68.75 25l-.4 2.98a9.98 9.98 0 0 1 4.18-2.3 12.9 12.9 0 0 1 5.2-.28c3.43.44 6 1.86 7.74 4.26 1.73 2.4 2.36 5.44 1.88 9.12l-2.77 21.26-9.52-1.24 2.16-16.56c.35-2.7.22-4.67-.4-5.9-.6-1.21-1.81-1.94-3.65-2.18-1.93-.25-3.4.15-4.45 1.2-1.02 1.05-1.7 2.84-2.02 5.38l-2.17 16.7L55 56.18ZM108.22 53.8c-4.23.34-7.65-.87-10.25-3.66-2.58-2.8-4.1-6.92-4.54-12.34a21.4 21.4 0 0 1 1-8.98 14.5 14.5 0 0 1 4.26-6.41 11.93 11.93 0 0 1 6.88-2.75 7.4 7.4 0 0 1 6.64 2.74l-.95-11.68 9.22-5.05 3.75 46.05-9.56.78-.23-2.74c-.98 2.43-3.05 3.78-6.22 4.04Zm.9-9.39a8.57 8.57 0 0 0 2.94-.65c.7-.36 1.28-.89 1.76-1.6l-.95-11.73a5.36 5.36 0 0 0-2.23-1.32c-.9-.3-1.83-.4-2.79-.32a4.7 4.7 0 0 0-3.89 2.34c-.84 1.4-1.17 3.36-.96 5.89.14 1.76.47 3.21.97 4.35a5.16 5.16 0 0 0 2.02 2.43c.86.51 1.9.72 3.14.61ZM141.5 47.95a16.38 16.38 0 0 1-8.06-3.1 13.6 13.6 0 0 1-4.58-6.52c-.9-2.7-1.13-5.83-.67-9.38a20.32 20.32 0 0 1 3.03-8.74 14 14 0 0 1 6.12-5.19c2.5-1.1 5.34-1.44 8.52-1.03 2.75.35 5.15 1.23 7.2 2.63a12.28 12.28 0 0 1 4.62 5.76c1.02 2.43 1.31 5.38.87 8.85l-.32 2.22c-.13.87-.32 1.72-.56 2.58l-20.63-2.65a5.97 5.97 0 0 0 .37 3.14c.4.91 1.04 1.66 1.9 2.25.88.58 1.95.96 3.22 1.12 1.65.21 3.06.12 4.23-.27a9.9 9.9 0 0 0 3.57-2.21l4.76 6.16a17.76 17.76 0 0 1-6 3.71 16.08 16.08 0 0 1-7.6.67Zm-3.42-21.67 11.68 1.5a6.98 6.98 0 0 0-.62-2.92c-.4-.8-.97-1.43-1.73-1.9-.75-.48-1.7-.8-2.84-.94-1.55-.2-2.9.08-4.08.83a5.75 5.75 0 0 0-2.4 3.43ZM162 52.09l4.95-32.33 9.49 1.45-.46 2.97a6.44 6.44 0 0 1 3-2.2 7 7 0 0 1 3.77-.58 8.27 8.27 0 0 1 5.9 3.81l-2.59 8.41a9.37 9.37 0 0 0-2.5-2.22 7.62 7.62 0 0 0-2.83-.99 5.76 5.76 0 0 0-3.15.3 4.94 4.94 0 0 0-2.25 1.95c-.57.93-.97 2.11-1.18 3.54l-2.66 17.34-9.48-1.45Z"/>
  </g>
  <defs>
    <clipPath id="a">
      <path fill="#fff" d="M0 0h189v60H0z"/>
    </clipPath>
  </defs>
</svg>
